<svg width="38" height="48" viewBox="0 0 38 48" fill="none" xmlns="http://www.w3.org/2000/svg">
<path fill-rule="evenodd" clip-rule="evenodd" d="M28.7113 23.6529C28.6591 23.9311 28.5322 24.1959 28.3399 24.4275C28.1476 24.659 27.895 24.8512 27.6009 24.9898C27.0088 25.3086 26.4906 25.468 25.9663 25.6274C24.8499 25.9488 23.6748 26.2702 22.4319 26.643C21.1211 27.0157 19.946 27.3885 18.8974 27.6585C17.5897 28.0313 16.3468 28.3526 15.1656 28.7254C14.2769 29.0425 13.4421 29.4556 12.6828 29.9544C11.9767 30.4877 11.3604 31.0983 10.8508 31.7695C10.3265 32.515 9.99652 33.4766 9.99652 34.5975C9.99652 36.842 10.6504 38.5491 11.9611 39.6161C13.2688 40.7396 15.693 41.2718 19.286 41.2718C22.95 41.2718 25.4359 40.6856 26.7497 39.5107C28.0543 38.3357 28.7082 36.6826 28.7082 34.5487V23.6529H28.7113ZM19.2891 0C25.7042 0 30.4137 1.01553 33.4208 3.09802C36.4309 5.12908 37.936 7.74119 37.936 10.8366V37.2148C37.936 38.2817 37.6769 39.4567 37.2205 40.737C36.7578 42.0225 35.8449 43.1949 34.4046 44.2592C33.0322 45.3313 31.1354 46.2389 28.7143 46.933C26.2933 47.6272 23.1536 48 19.2922 48C15.437 48 12.2911 47.6272 9.87315 46.933C7.45517 46.2389 5.55532 45.3313 4.18286 44.2592C2.90611 43.3001 1.93892 42.089 1.3701 40.737C0.907479 39.4592 0.645325 38.2843 0.645325 37.2174V33.001C0.645325 30.7565 1.36394 28.674 2.80424 26.8563C4.24455 24.9898 6.27085 23.7095 8.8893 22.9073C10.197 22.5345 11.7021 22.1618 13.4014 21.681C15.1039 21.1976 16.6707 20.7169 18.2436 20.2927C19.8165 19.8633 21.189 19.434 22.364 19.0586C23.0732 18.8221 23.7934 18.6094 24.523 18.421L25.7011 17.9402C26.1637 17.7268 26.6171 17.4055 27.0766 16.9787C27.5331 16.5545 27.9248 16.0737 28.2548 15.5389C28.6035 14.9599 28.7831 14.3203 28.7791 13.6724V11.9627C28.7839 11.3361 28.6261 10.716 28.3165 10.145C28.0574 9.5023 27.5331 8.91612 26.8145 8.38393C26.0959 7.84917 25.112 7.42239 23.937 7.09845C22.7588 6.78222 21.192 6.62025 19.4217 6.62025C15.7577 6.62025 13.3367 7.21157 12.029 8.43535C10.9187 9.50488 10.2648 10.8392 10.1353 12.3329C10.1353 12.6543 9.80839 12.8677 9.41361 12.8677L1.43487 12.9757C1.24534 12.9764 1.06316 12.9146 0.927992 12.8039C0.792824 12.6931 0.715615 12.5423 0.713176 12.3844V10.8418C0.713176 9.3429 1.04318 7.95458 1.76179 6.62025C2.48349 5.28334 3.59687 4.16497 5.09886 3.20086C6.60394 2.24189 8.56855 1.44231 10.9218 0.907552C13.2133 0.26481 16.0261 0 19.2953 0H19.2891Z" fill="#0A3871"/>
</svg>
